<svg xmlns="http://www.w3.org/2000/svg" xmlns:xlink="http://www.w3.org/1999/xlink" width="1292.132" height="852.291" viewBox="0 0 1292.132 852.291">
  <defs>
    <linearGradient id="linear-gradient" x1="0.095" y1="-0.018" x2="1.174" y2="2.023" gradientUnits="objectBoundingBox">
      <stop offset="0" stop-color="#e7f3fe"/>
      <stop offset="0.441" stop-color="#eff7fe"/>
      <stop offset="1" stop-color="#fff"/>
    </linearGradient>
    <linearGradient id="linear-gradient-2" x1="16.319" y1="0.5" x2="17.319" y2="0.5" gradientUnits="objectBoundingBox">
      <stop offset="0" stop-color="#3d342b"/>
      <stop offset="1" stop-color="#291c17"/>
    </linearGradient>
    <linearGradient id="linear-gradient-3" x1="20.7" y1="0.5" x2="21.7" y2="0.5" xlink:href="#linear-gradient-2"/>
    <linearGradient id="linear-gradient-4" x1="5.688" y1="0.5" x2="6.688" y2="0.5" xlink:href="#linear-gradient-2"/>
    <linearGradient id="linear-gradient-5" x1="8.647" y1="0.5" x2="9.647" y2="0.5" xlink:href="#linear-gradient-2"/>
    <linearGradient id="linear-gradient-6" x1="0.498" y1="0.954" x2="0.37" y2="-1.059" gradientUnits="objectBoundingBox">
      <stop offset="0" stop-color="#710e76"/>
      <stop offset="0.483" stop-color="#f23f6c"/>
      <stop offset="1" stop-color="#ef7544"/>
    </linearGradient>
    <linearGradient id="linear-gradient-7" x1="0.409" y1="1.104" x2="0.603" y2="-0.282" xlink:href="#linear-gradient-6"/>
    <linearGradient id="linear-gradient-8" x1="1.182" y1="1.149" x2="-0.688" y2="-0.153" xlink:href="#linear-gradient-6"/>
    <linearGradient id="linear-gradient-9" x1="-40.569" y1="0.5" x2="-39.569" y2="0.5" xlink:href="#linear-gradient-2"/>
    <linearGradient id="linear-gradient-10" x1="25.263" y1="-81.492" x2="26.342" y2="-81.492" xlink:href="#linear-gradient-2"/>
    <linearGradient id="linear-gradient-11" x1="0" y1="0.5" x2="1" y2="0.5" xlink:href="#linear-gradient-2"/>
    <linearGradient id="linear-gradient-12" x1="59.487" y1="-125.722" x2="60.501" y2="-125.722" xlink:href="#linear-gradient-2"/>
  </defs>
  <g id="Group_3042" data-name="Group 3042" transform="translate(-293 -183.702)">
    <path id="Path_1" data-name="Path 1" d="M230.344,261.259c194.609-79.5,392.405-9.215,526.553,143.862s415.678-105.655,564.987,47.172c101.9,104.3,55.224,372.449-84.494,488.592-189.909,157.865-897.4,162.606-1014.789,108.433C22.007,956.749,221.321,785.326,127.685,621,17.218,427.132,144.343,296.389,230.344,261.259Z" transform="translate(208.347 -44.532)" fill="url(#linear-gradient)"/>
    <g id="Group_3040" data-name="Group 3040" transform="translate(173.253 7.11)">
      <g id="Group_2910" data-name="Group 2910" transform="translate(363.735 340.46)">
        <path id="Path_10896" data-name="Path 10896" d="M461.35,167.555c0,10.945-66.026,19.829-147.454,19.829S166.449,178.5,166.449,167.555s66.019-19.836,147.447-19.836S461.35,156.6,461.35,167.555Z" transform="translate(57.096 339.027)" fill="#8686fe"/>
        <path id="Path_10897" data-name="Path 10897" d="M313.9,170.223c-81.428,0-147.447-8.884-147.447-19.829v9.173c0,10.945,66.019,19.829,147.447,19.829s147.454-8.884,147.454-19.829v-9.173C461.35,161.339,395.323,170.223,313.9,170.223Z" transform="translate(57.096 356.188)" fill="#636ec7"/>
        <path id="Path_10898" data-name="Path 10898" d="M263.713,204.277s-9.2,6.555-41.637,6.555-41.348-6.555-41.348-6.555l2.618-64.224H261.1Z" transform="translate(148.701 289.847)" fill="#636ec7"/>
        <g id="Group_2908" data-name="Group 2908">
          <g id="Group_2907" data-name="Group 2907">
            <g id="Group_2906" data-name="Group 2906">
              <path id="Rectangle_772" data-name="Rectangle 772" d="M1.769,0H740.076a1.769,1.769,0,0,1,1.769,1.769V434.69a1.768,1.768,0,0,1-1.768,1.768H1.768A1.768,1.768,0,0,1,0,434.69V1.769A1.769,1.769,0,0,1,1.769,0Z" fill="#8686fe"/>
            </g>
          </g>
        </g>
        <rect id="Rectangle_773" data-name="Rectangle 773" width="699.899" height="394.512" transform="translate(20.975 20.968)" fill="#d7ddff"/>
        <path id="Path_10899" data-name="Path 10899" d="M792.683,87.087H157.492a16.229,16.229,0,0,0-16.18,16.18V465.425H808.863V103.267A16.229,16.229,0,0,0,792.683,87.087Z" transform="translate(-104.166 -49.948)" fill="#bfd4e6" opacity="0.6" style="mix-blend-mode: multiply;isolation: isolate"/>
        <path id="Path_10900" data-name="Path 10900" d="M762.519,92h-602.8a16.227,16.227,0,0,0-16.18,16.173l-.044,325.771H778.685V108.168A16.219,16.219,0,0,0,762.519,92Z" transform="translate(-90.168 -18.462)" fill="#e3f0e3"/>
        <g id="Group_2909" data-name="Group 2909" transform="translate(56.181 50.242)">
          <path id="Path_10901" data-name="Path 10901" d="M156.01,94.92a6.066,6.066,0,1,1-6.066-6.066A6.064,6.064,0,0,1,156.01,94.92Z" transform="translate(-143.879 -88.854)" fill="#b2b2b2" style="mix-blend-mode: multiply;isolation: isolate"/>
          <path id="Path_10902" data-name="Path 10902" d="M159.146,94.92a6.066,6.066,0,1,1-6.066-6.066A6.068,6.068,0,0,1,159.146,94.92Z" transform="translate(-123.76 -88.854)" fill="#b2b2b2" style="mix-blend-mode: multiply;isolation: isolate"/>
          <path id="Path_10903" data-name="Path 10903" d="M162.282,94.92a6.066,6.066,0,1,1-6.066-6.066A6.064,6.064,0,0,1,162.282,94.92Z" transform="translate(-103.649 -88.854)" fill="#b2b2b2" style="mix-blend-mode: multiply;isolation: isolate"/>
        </g>
        <path id="Path_10904" data-name="Path 10904" d="M245.91,100.963a6.068,6.068,0,0,1-6.066,6.066h-86.27a6.062,6.062,0,0,1-6.058-6.066h0a6.062,6.062,0,0,1,6.058-6.066h86.27a6.068,6.068,0,0,1,6.066,6.066Z" transform="translate(-64.366 0.156)" fill="#bfd4e6" opacity="0.6" style="mix-blend-mode: multiply;isolation: isolate"/>
        <path id="Path_10905" data-name="Path 10905" d="M243.508,100.963a6.062,6.062,0,0,1-6.058,6.066H191.616a6.064,6.064,0,0,1-6.066-6.066h0a6.064,6.064,0,0,1,6.066-6.066H237.45a6.062,6.062,0,0,1,6.058,6.066Z" transform="translate(179.635 0.156)" fill="#e0e0cf"/>
        <path id="Path_10906" data-name="Path 10906" d="M254.551,100.963a6.068,6.068,0,0,1-6.066,6.066H202.651a6.062,6.062,0,0,1-6.058-6.066h0a6.062,6.062,0,0,1,6.058-6.066h45.834a6.068,6.068,0,0,1,6.066,6.066Z" transform="translate(250.48 0.156)" fill="#bfd4e6" opacity="0.6" style="mix-blend-mode: multiply;isolation: isolate"/>
        <path id="Path_10907" data-name="Path 10907" d="M265.593,100.963a6.064,6.064,0,0,1-6.066,6.066H213.7a6.064,6.064,0,0,1-6.066-6.066h0A6.064,6.064,0,0,1,213.7,94.9h45.827a6.064,6.064,0,0,1,6.066,6.066Z" transform="translate(321.318 0.156)" fill="#bfd4e6" opacity="0.6" style="mix-blend-mode: multiply;isolation: isolate"/>
        <path id="Path_10908" data-name="Path 10908" d="M276.635,100.963a6.062,6.062,0,0,1-6.058,6.066H224.743a6.064,6.064,0,0,1-6.066-6.066h0a6.064,6.064,0,0,1,6.066-6.066h45.834a6.062,6.062,0,0,1,6.058,6.066Z" transform="translate(392.156 0.156)" fill="#bfd4e6" opacity="0.6" style="mix-blend-mode: multiply;isolation: isolate"/>
      </g>
      <g id="Group_2912" data-name="Group 2912" transform="translate(226.199 454.154)" opacity="0.8" style="mix-blend-mode: multiply;isolation: isolate">
        <g id="Group_2911" data-name="Group 2911">
          <path id="Path_10909" data-name="Path 10909" d="M247.117,58.033V73.739c-1.216.5-1.854.756-3.055,1.283C242.2,73.153,232.946,63.9,232.946,63.9L217.211,79.641s9.262,9.254,11.1,11.1c-.5,1.216-.756,1.846-1.253,3.063H211.345v22.253h15.713c.5,1.216.749,1.854,1.253,3.055-1.839,1.861-11.1,11.116-11.1,11.116l15.735,15.728s9.254-9.254,11.116-11.108c1.2.5,1.839.779,3.055,1.275V151.83h22.246V136.124c1.216-.512,1.861-.771,3.063-1.275,1.861,1.854,11.108,11.108,11.108,11.108l15.735-15.728s-9.254-9.254-11.108-11.116c.5-1.2.771-1.839,1.261-3.055h15.713V93.8H289.421c-.489-1.216-.764-1.846-1.261-3.063,1.854-1.846,11.108-11.1,11.108-11.1L283.533,63.9s-9.247,9.254-11.108,11.123c-1.2-.526-1.846-.779-3.062-1.283V58.033Zm17.211,5.028V77.1l1.824.734,7.223,2.966,1.431-1.06s6.273-6.266,8.728-8.728c2.158,2.15,6.481,6.474,8.639,8.631-2.454,2.447-9.929,9.907-9.929,9.907l.764,1.794,2.974,7.245,1.787.237h12.339V111.03H286.069l-.719,1.809-2.974,7.23,1.06,1.431s6.281,6.266,8.735,8.728c-2.158,2.158-6.481,6.474-8.639,8.624l-9.907-9.907-1.795.756-7.237,2.981-.267,1.757V146.8H252.159V132.757l-1.832-.719-7.223-2.974-1.431,1.06s-6.281,6.273-8.728,8.728c-2.158-2.15-6.474-6.466-8.617-8.624,2.432-2.462,9.907-9.922,9.907-9.922l-.764-1.794-2.966-7.23-1.787-.252H216.373V98.825H230.4l.742-1.8L234.1,89.8l-1.06-1.446s-6.281-6.266-8.713-8.713c2.143-2.158,6.459-6.481,8.617-8.631,2.447,2.462,9.914,9.9,9.914,9.9l1.795-.749,7.223-2.981.282-1.757V63.061Z" transform="translate(-211.345 -58.033)" fill="#e4e8f4"/>
          <path id="Path_10910" data-name="Path 10910" d="M214.835,82.538a21.015,21.015,0,1,0,21.022-21.015A21.055,21.055,0,0,0,214.835,82.538Zm5.035,0a15.987,15.987,0,1,1,15.987,15.98A16,16,0,0,1,219.87,82.538Z" transform="translate(-188.955 -35.643)" fill="#e4e8f4"/>
        </g>
      </g>
      <g id="Group_2925" data-name="Group 2925" transform="translate(306.639 211.42)" opacity="0.8" style="mix-blend-mode: multiply;isolation: isolate">
        <g id="Group_2924" data-name="Group 2924" transform="translate(0)">
          <g id="Group_2916" data-name="Group 2916" transform="translate(20.221 24.665)">
            <g id="Group_2913" data-name="Group 2913">
              <path id="Path_10911" data-name="Path 10911" d="M245.766,133.516c0,11.193,4.372,18.359,9.045,25.969,3.546,5.792,7.249,11.779,9.12,20.125l2.5,11.719c2.847,13.852,5.018,23.167,9.968,25.609.759,4.98,4.417,12.47,14.664,12.47,10.224,0,13.83-7.49,14.573-12.508,4.935-2.4,7.129-11.734,9.961-25.571l2.517-11.719c1.855-8.346,5.536-14.333,9.1-20.125,4.658-7.61,9.059-14.776,9.059-25.969,0-36.238-24.452-49.091-45.4-49.091C270.06,84.425,245.766,97.278,245.766,133.516Zm31.092,83.609c.661.248,1.164.819,1.9.819A2.785,2.785,0,0,1,276.858,217.125Zm4.59-2.013a2.728,2.728,0,0,0-2.689-2.554c-2.479,0-5.243-13.424-7.046-22.311l-2.532-11.824c-2.1-9.225-6.175-15.865-9.8-21.77-4.41-7.227-8.263-13.469-8.263-23.137,0-41.609,33.12-43.7,39.761-43.7,6.678,0,40.032,2.088,40.032,43.7,0,9.668-3.839,15.911-8.271,23.137-3.606,5.9-7.7,12.545-9.811,21.77l-2.494,11.824c-1.8,8.887-4.575,22.311-7.069,22.311a2.7,2.7,0,0,0-2.689,2.554c-.045.894-.781,8.924-9.51,8.924S281.508,215.991,281.448,215.112Zm23.7,2.013a2.652,2.652,0,0,1-1.886.819C304,217.944,304.518,217.373,305.149,217.125Z" transform="translate(-245.766 -84.425)" fill="#e4e8f4"/>
            </g>
            <g id="Group_2914" data-name="Group 2914" transform="translate(30.311 128.133)">
              <path id="Path_10912" data-name="Path 10912" d="M252.483,101.482a2.693,2.693,0,0,0,0,5.386h24.5a2.693,2.693,0,0,0,0-5.386Z" transform="translate(-249.801 -101.482)" fill="#e4e8f4"/>
            </g>
            <g id="Group_2915" data-name="Group 2915" transform="translate(22.934 113.447)">
              <path id="Path_10913" data-name="Path 10913" d="M251.538,99.527a2.678,2.678,0,1,0,0,5.356h37.943a2.678,2.678,0,1,0,0-5.356Z" transform="translate(-248.819 -99.527)" fill="#e4e8f4"/>
            </g>
          </g>
          <g id="Group_2917" data-name="Group 2917" transform="translate(62.781)">
            <rect id="Rectangle_774" data-name="Rectangle 774" width="5.385" height="12.541" fill="#e4e8f4"/>
          </g>
          <g id="Group_2918" data-name="Group 2918" transform="translate(118.396 62.773)">
            <rect id="Rectangle_775" data-name="Rectangle 775" width="12.537" height="5.363" fill="#e4e8f4"/>
          </g>
          <g id="Group_2919" data-name="Group 2919" transform="translate(0 62.773)">
            <rect id="Rectangle_776" data-name="Rectangle 776" width="12.552" height="5.363" fill="#e4e8f4"/>
          </g>
          <g id="Group_2920" data-name="Group 2920" transform="translate(105.905 105.906)">
            <rect id="Rectangle_777" data-name="Rectangle 777" width="5.369" height="12.553" transform="matrix(0.707, -0.707, 0.707, 0.707, 0, 3.795)" fill="#e4e8f4"/>
          </g>
          <g id="Group_2921" data-name="Group 2921" transform="translate(17.247 17.28)">
            <path id="Path_10914" data-name="Path 10914" d="M245.37,87.238l8.9,8.88,3.815-3.815-8.891-8.862Z" transform="translate(-245.37 -83.442)" fill="#e4e8f4"/>
          </g>
          <g id="Group_2922" data-name="Group 2922" transform="translate(100.98 17.247)">
            <path id="Path_10915" data-name="Path 10915" d="M256.517,92.333l3.793,3.815,8.869-8.906-3.792-3.8Z" transform="translate(-256.517 -83.438)" fill="#e4e8f4"/>
          </g>
          <g id="Group_2923" data-name="Group 2923" transform="translate(12.997 105.235)">
            <rect id="Rectangle_778" data-name="Rectangle 778" width="12.562" height="5.38" transform="matrix(0.708, -0.706, 0.706, 0.708, 0, 8.866)" fill="#e4e8f4"/>
          </g>
        </g>
      </g>
      <rect id="Rectangle_779" data-name="Rectangle 779" width="898.896" height="6.517" transform="translate(388.099 868.684)" fill="#b7c9f1"/>
      <g id="Group_2959" data-name="Group 2959" transform="translate(437.571 561.72)">
        <g id="Group_2954" data-name="Group 2954" transform="translate(60.346 39.817)">
          <path id="Path_10932" data-name="Path 10932" d="M154.4,128.893l24.634-10.619s4.049,3.381,4.049,6.1c0,2.7-21.905,23.477-21.905,23.477Z" transform="translate(-154.398 -110.95)" fill="#0c337d"/>
          <path id="Path_10933" data-name="Path 10933" d="M159.853,119.45c-1.958,2.195-2.247,5.146-.645,6.577s4.494.8,6.459-1.4,2.262-5.131.645-6.555C164.71,116.624,161.818,117.232,159.853,119.45Z" transform="translate(-130.184 -117.286)" fill="#ffad97"/>
        </g>
        <g id="Group_2958" data-name="Group 2958">
          <g id="Group_2955" data-name="Group 2955" transform="translate(54.814 305.422)">
            <path id="Path_10934" data-name="Path 10934" d="M153.875,153.524v7.923h6.25V153.1Z" transform="translate(-152.221 -153.105)" fill="#ffad97"/>
            <path id="Path_10935" data-name="Path 10935" d="M155.306,153.87a4.808,4.808,0,0,0-1.654,3.945v5.754h25.042s.46-3.4-2.981-3.4-9.462-2.722-10.589-4c-1.453-1.676-2.484-2.3-3.567-2.3Z" transform="translate(-153.652 -148.194)" fill="url(#linear-gradient-2)"/>
          </g>
          <g id="Group_2956" data-name="Group 2956" transform="translate(0 302.851)">
            <path id="Path_10936" data-name="Path 10936" d="M146.483,153.178v7.914h6.239v-8.335Z" transform="translate(-144.83 -152.758)" fill="#ffad97"/>
            <path id="Path_10937" data-name="Path 10937" d="M147.914,153.522a4.837,4.837,0,0,0-1.654,3.975v5.725h25.034s.46-3.389-2.974-3.389-9.477-2.714-10.6-4c-1.446-1.668-2.477-2.306-3.574-2.306Z" transform="translate(-146.26 -147.855)" fill="url(#linear-gradient-3)"/>
          </g>
          <path id="Path_10938" data-name="Path 10938" d="M158.177,133.829s6.081,48.118-.534,76.052c-6.6,27.911-11.368,72.93-11.368,72.93s2.2,1.935,8.12.526c0,0,32.62-82.125,32.62-109.028,0-26.881-6.9-34.148-6.9-34.148S162.619,128.772,158.177,133.829Z" transform="translate(-146.164 20.353)" fill="#666"/>
          <path id="Path_10939" data-name="Path 10939" d="M149.208,140.031s20.9,48.852,22.736,81.354c1.824,32.524,9.951,71.024,9.951,71.024h9.536s9.9-84.209,4.776-151.74C195.079,125.8,156.453,131.778,149.208,140.031Z" transform="translate(-127.348 14.151)" fill="#8c8c8c"/>
          <g id="Group_2957" data-name="Group 2957" transform="translate(33.685)">
            <path id="Path_10940" data-name="Path 10940" d="M179.852,113.772s.193,8.1.193,9.2,2.113,4.8,3.1,5.673c1.008.89-.193,2.7-1.5,2.8-1.29.1-1.09,1.8-1.09,3.4,0,3.4.2,14.074-10.789,7.378,0,0-2.01,7.148-1.4,9.447l-17.241.326s1.891-8.765,1.594-12.754S166.237,109.241,179.852,113.772Z" transform="translate(-148.734 -103.403)" fill="#ffad97"/>
            <path id="Path_10941" data-name="Path 10941" d="M184.116,114.314c-7.779.808-25.931-7.979-30.425,3.789,0,0-3.648.119-2.744,6.244.89,6.132-.756,24.4,7.63,24.4s11.746-3.374,11.746-3.374-6.066-8.149-2.076-11.308c1.246-.949,2.529-.141,2.61,2.032s-.222,12.161,1.075,14.964c1.958,4.264,5.695,3.633,7.186,3.226,4.635-1.283,4.5-11.62,3.456-8.542s-4.842,3-6.733,1.1c-1.891-1.883-3.53-12.94-3.537-12.962.067-5.295,1.579-12.68,9.618-11.59a21.636,21.636,0,0,0,4.783.919C189.41,123.406,191.9,113.521,184.116,114.314Z" transform="translate(-150.803 -111.917)" fill="#444199"/>
          </g>
          <path id="Path_10942" data-name="Path 10942" d="M147.651,227.345s2.714-75.985,9.514-91c6.778-15.053,14.927-18.509,20.029-18.509,5.08,0,22.951,1.528,36.98,23.9s20.355,26.228,34.392,28.037c14.015,1.795,21.252,2.3,21.252,2.3a14.932,14.932,0,0,1,0,9.773s-24.767,1.35-36.639-1.935-23.41-11.368-23.41-11.368l-.356,61.125s-8.98,8.29-32.917,8.29S147.651,227.345,147.651,227.345Z" transform="translate(-137.336 -73.949)" fill="#0c4296"/>
          <path id="Path_10943" data-name="Path 10943" d="M164.615,129.405c0,2.336,2.885,4.234,6.444,4.234s6.451-1.9,6.451-4.234-2.885-4.256-6.451-4.256S164.615,127.062,164.615,129.405Z" transform="translate(-28.506 -27.027)" fill="#ffad97"/>
        </g>
      </g>
      <g id="Group_2971" data-name="Group 2971" transform="translate(417.016 562.52)">
        <path id="Path_10945" data-name="Path 10945" d="M369.482,161.007c0,3.782-31.916,6.844-71.239,6.844-39.346,0-71.247-3.062-71.247-6.844,0-3.752,31.9-6.8,71.247-6.8C337.566,154.207,369.482,157.255,369.482,161.007Z" transform="translate(392.244 158.59)" fill="#3c4cb1" opacity="0.2" style="mix-blend-mode: multiply;isolation: isolate"/>
        <path id="Path_10946" data-name="Path 10946" d="M285.959,161.007c0,3.782-31.908,6.844-71.224,6.844-39.346,0-71.246-3.062-71.246-6.844,0-3.752,31.9-6.8,71.246-6.8C254.051,154.207,285.959,157.255,285.959,161.007Z" transform="translate(-143.488 158.59)" fill="#3c4cb1" opacity="0.2" style="mix-blend-mode: multiply;isolation: isolate"/>
        <g id="Group_3041" data-name="Group 3041" transform="translate(17 1)">
          <path id="Path_10944" data-name="Path 10944" d="M321.435,161.007c0,3.782-31.9,6.844-71.232,6.844s-71.239-3.062-71.239-6.844c0-3.752,31.9-6.8,71.239-6.8S321.435,157.255,321.435,161.007Z" transform="translate(84.102 158.59)" fill="#3c4cb1" opacity="0.2" style="mix-blend-mode: multiply;isolation: isolate"/>
          <g id="Group_2960" data-name="Group 2960" transform="translate(327.58 301.682)">
            <path id="Path_10947" data-name="Path 10947" d="M187.962,153.2v9.291h8.313v-9.783Z" transform="translate(-185.753 -152.708)" fill="#ffad97"/>
            <path id="Path_10948" data-name="Path 10948" d="M189.874,153.608a5.43,5.43,0,0,0-2.21,4.635V165h33.4s.6-3.982-3.982-3.982-12.621-3.174-14.1-4.709c-1.928-1.965-3.322-2.7-4.79-2.7Z" transform="translate(-187.664 -146.934)" fill="url(#linear-gradient-4)"/>
          </g>
          <g id="Group_2961" data-name="Group 2961" transform="translate(278.12 301.682)">
            <path id="Path_10949" data-name="Path 10949" d="M181.292,153.2v9.291h8.313v-9.783Z" transform="translate(-179.082 -152.708)" fill="#ffad97"/>
            <path id="Path_10950" data-name="Path 10950" d="M183.2,153.608a5.43,5.43,0,0,0-2.21,4.635V165h33.4s.593-3.982-3.989-3.982-12.606-3.174-14.126-4.709c-1.913-1.965-3.292-2.7-4.761-2.7Z" transform="translate(-180.994 -146.934)" fill="url(#linear-gradient-5)"/>
          </g>
          <path id="Path_10951" data-name="Path 10951" d="M226.618,145.745l-3.656,164.947s-8.669,1.676-14.423,0c-4.827-25.145-5.465-80.4-12.361-116.829-6.919-36.424-11.946-43.98-11.946-60.3C184.232,117.218,226.618,145.745,226.618,145.745Z" transform="translate(117.898 -6.281)" fill="#0c337d"/>
          <path id="Path_10952" data-name="Path 10952" d="M194.547,291.724a25.736,25.736,0,0,1-13.54-.749l20.051-159.749h34.607Z" transform="translate(97.203 11.159)" fill="#0c4296"/>
          <path id="Path_10953" data-name="Path 10953" d="M190.661,119.128s14.742,19.918,24.745,29.127c4.494,4.449,24-14.045,36.113-27.11,0,0,6.044,2.855,7.638,11.471,0,0-10.507,10.819-26.072,27.615C219.641,174.758,208,173.905,194.139,156.2,180.295,138.541,190.661,119.128,190.661,119.128Z" transform="translate(135.235 -66.453)" fill="#b0bfde"/>
          <g id="Group_2963" data-name="Group 2963" transform="translate(287.401)">
            <g id="Group_2962" data-name="Group 2962">
              <path id="Path_10954" data-name="Path 10954" d="M210.572,135.98c.964-11.887-4.568-22.632-4.568-22.632-1.713.838-6,1.505-8.965,2.351-2.988.853-2.128,5.168-1.906,7.26s-.452,6.889-1.461,7.46c-.979-2.217-2.469-9.618-5.317-6.348s-1.513,4.249-.46,8.55-4.2,4.531-4.2,4.531c3.745,10.04,2.684,13.073,4.583,15.142,4.308,4.731,15.661,7.438,14.208-1.1-1.995-4.79-3.463-8.2-3.463-8.2C206.953,145.99,209.972,142.475,210.572,135.98Z" transform="translate(-172.921 -103.534)" fill="#ffad97"/>
              <path id="Path_10955" data-name="Path 10955" d="M215.329,121.839s5.561-2.232,5.628-5.658-7.964-1.772-15.038-3.144-17.515-2.885-20.444,6.7c0,0-4.627,3.886-2.8,9.506s6.9,9.091,10.352,16.4c0,0,5.258-.245,4.2-4.531s-2.388-5.265.46-8.55,4.338,4.13,5.317,6.348c1.008-.571,1.668-5.384,1.461-7.46s-1.083-6.407,1.906-7.26C209.329,123.344,213.616,122.676,215.329,121.839Z" transform="translate(-182.246 -112.025)" fill="#143f58"/>
            </g>
            <path id="Path_10956" data-name="Path 10956" d="M186.5,115.85s2.113,10.115,6.518,10.063,9.321-3.648,10.189-.26-3.151,7.786-7.393,7.378c-4.219-.445-6.97-2.113-7.86-4.79-.912-2.692-3.026-13.014-3.026-13.014Z" transform="translate(-165.03 -91.48)" fill="#143f58"/>
          </g>
          <path id="Path_10957" data-name="Path 10957" d="M200.935,119.361s-14.638,5.917-18.642,14.6,9.966,24.9,14.927,74.754c.371,3.671-2.121,9.714-2.121,9.714a202.111,202.111,0,0,0,49.067-5.028s-4.738-46.027-9.432-64.617c-4.679-18.583-7.03-24.545-19.169-30.136A35.544,35.544,0,0,0,200.935,119.361Z" transform="translate(100.862 -72.323)" fill="#d2dbea"/>
          <path id="Path_10958" data-name="Path 10958" d="M189.192,145.645a19.5,19.5,0,0,1-2.173-2.4c-3.144-4.227-3.819-9.047-1.527-10.76,1.906-1.416,5.25-.237,8.1,2.588Z" transform="translate(117.269 15.419)" fill="#ffad97"/>
          <path id="Path_10959" data-name="Path 10959" d="M191.471,123.229c-5.591,7.779-10.737,35.512-11.316,47.28-.541,11.761,21.964,37.729,26.421,41.126,0,0,5.591-2.87,5.776-8.009,0,0-16.084-25.783-17.389-33.769-1.29-7.971,10.241-27.177,11.257-35.171C207,128.724,198.768,113.078,191.471,123.229Z" transform="translate(91.683 -61.59)" fill="#b0bfde"/>
          <path id="Path_10960" data-name="Path 10960" d="M198.613,122.114c-2.677,3.715-2.907,8.1-.541,9.788,2.343,1.676,6.437.03,9.084-3.693s2.885-8.1.549-9.781C205.339,116.715,201.253,118.376,198.613,122.114Z" transform="translate(196.217 -75.275)" fill="#ffad97"/>
          <g id="Group_2970" data-name="Group 2970" transform="translate(392.776 23.737)">
            <path id="Rectangle_781" data-name="Rectangle 781" d="M.206,0h13.21a.2.2,0,0,1,.2.2v27.8a.207.207,0,0,1-.207.207H.207A.207.207,0,0,1,0,28.006V.206A.206.206,0,0,1,.206,0Z" fill="#0c4296"/>
            <g id="Group_2966" data-name="Group 2966" transform="translate(0.434 2.969)">
              <g id="Group_2965" data-name="Group 2965">
                <g id="Group_2964" data-name="Group 2964">
                  <rect id="Rectangle_782" data-name="Rectangle 782" width="12.753" height="22.275" fill="#b5c9ff"/>
                </g>
              </g>
            </g>
            <g id="Group_2969" data-name="Group 2969" transform="translate(4.834 1.338)" opacity="0.6" style="mix-blend-mode: multiply;isolation: isolate">
              <g id="Group_2968" data-name="Group 2968">
                <g id="Group_2967" data-name="Group 2967">
                  <path id="Path_10961" data-name="Path 10961" d="M197.108,115.532a.15.15,0,0,0,.141.134H200.9a.139.139,0,0,0,.156-.134h0a.143.143,0,0,0-.156-.126h-3.648c-.052,0-.141.059-.141.126Z" transform="translate(-197.108 -115.406)" fill="#ef4b00"/>
                </g>
              </g>
            </g>
            <path id="Path_10962" data-name="Path 10962" d="M200.6,119.512a.8.8,0,0,1-.8.8h-1.854a.8.8,0,0,1-.8-.8h0a.8.8,0,0,1,.8-.786h1.854a.794.794,0,0,1,.8.786Z" transform="translate(-192.069 -92.769)" fill="#0c4296"/>
          </g>
          <path id="Path_10963" data-name="Path 10963" d="M201.888,118.724c.8.927.3,2.7-1.135,3.982-1.446,1.253-3.27,1.535-4.071.615s-.3-2.7,1.135-3.96S201.079,117.834,201.888,118.724Z" transform="translate(195.278 -72.389)" fill="#ffad97"/>
        </g>
      </g>
      <g id="Group_2975" data-name="Group 2975" transform="translate(505.887 839)">
        <path id="Path_10964" data-name="Path 10964" d="M281.082,164.528c0,2.553-26.561,4.6-59.326,4.592s-59.326-2.068-59.326-4.6c0-2.563,26.551-4.621,59.326-4.612S281.082,162,281.082,164.528Z" transform="translate(-135.276 -18.791)" fill="#473f66" opacity="0.2" style="mix-blend-mode: multiply;isolation: isolate"/>
        <g id="Group_2974" data-name="Group 2974">
          <path id="Path_10965" data-name="Path 10965" d="M306.519,218.263a72.592,72.592,0,1,1-72.6-72.616A72.593,72.593,0,0,1,306.519,218.263Z" transform="translate(-145.008 -145.647)" fill="#4e89f1"/>
          <path id="Path_10966" data-name="Path 10966" d="M304.879,218.263a72.6,72.6,0,1,1-72.607-72.616A72.589,72.589,0,0,1,304.879,218.263Z" transform="translate(-159.686 -145.647)" fill="#6eb1ff"/>
          <g id="Group_2973" data-name="Group 2973" transform="translate(33.092 33.498)">
            <g id="Group_2972" data-name="Group 2972">
              <path id="Path_10967" data-name="Path 10967" d="M163.03,193.029v-9.787c2.415-.109,4.226-.554,5.354-1.415a7.9,7.9,0,0,0,2.652-3.968c.613-1.771.93-4.78.93-9.055,0-5.354.228-9.035.742-11.014a10.746,10.746,0,0,1,2.306-4.7,11.8,11.8,0,0,1,4.74-2.909,26.773,26.773,0,0,1,9.015-1.148h2.167v9.777a22.3,22.3,0,0,0-5.73.445,3.542,3.542,0,0,0-1.979,1.544,8.434,8.434,0,0,0-.613,3.9c0,3.414-.168,7.244-.485,11.449a17.2,17.2,0,0,1-2.276,7.353,14.95,14.95,0,0,1-4.928,4.681,13.908,13.908,0,0,1,4.74,4.324,15.673,15.673,0,0,1,2.316,6.65c.178,1.158.356,4.938.554,11.361a19.631,19.631,0,0,0,.445,4.384,3.926,3.926,0,0,0,2.009,1.94,18.441,18.441,0,0,0,5.948.633v9.747h-2.167a29.658,29.658,0,0,1-8.807-.95,11.084,11.084,0,0,1-4.631-2.8,10.546,10.546,0,0,1-2.573-4.661c-.534-1.9-.792-5.146-.792-9.787,0-5.116-.277-8.609-.851-10.42a7.732,7.732,0,0,0-2.612-4.038A10.1,10.1,0,0,0,163.03,193.029Z" transform="translate(-163.03 -149.032)" fill="#fff"/>
              <path id="Path_10968" data-name="Path 10968" d="M196.083,183.242v9.787a10.5,10.5,0,0,0-5.374,1.425,7.572,7.572,0,0,0-2.632,3.959c-.643,1.8-.97,4.819-.97,9.094,0,5.373-.228,9.025-.712,10.955a9.947,9.947,0,0,1-2.306,4.71,11.7,11.7,0,0,1-4.73,2.929,27.594,27.594,0,0,1-9,1.118H168.2v-9.747a20.36,20.36,0,0,0,5.67-.475,3.4,3.4,0,0,0,2-1.534,8.084,8.084,0,0,0,.653-3.889c0-3.424.158-7.264.475-11.46a16.244,16.244,0,0,1,2.217-7.293,15.469,15.469,0,0,1,4.958-4.671,13.759,13.759,0,0,1-4.691-4.324,15.961,15.961,0,0,1-2.345-6.719c-.159-1.128-.376-4.918-.584-11.341a15.94,15.94,0,0,0-.475-4.414,3.494,3.494,0,0,0-1.969-1.91c-.99-.426-2.939-.633-5.908-.633v-9.777h2.167a29.121,29.121,0,0,1,8.738.99,11.435,11.435,0,0,1,4.671,2.82,10.534,10.534,0,0,1,2.573,4.681c.564,1.88.811,5.116.811,9.787,0,5.106.287,8.6.831,10.361a7.779,7.779,0,0,0,2.6,4.057A9.936,9.936,0,0,0,196.083,183.242Z" transform="translate(-117.074 -149.032)" fill="#fff"/>
            </g>
          </g>
        </g>
      </g>
      <g id="Group_2979" data-name="Group 2979" transform="translate(859.373 814.647)">
        <path id="Path_10969" data-name="Path 10969" d="M304.251,158.61c0,1.434-21.613,2.585-48.311,2.576s-48.33-1.16-48.33-2.594c0-1.453,21.641-2.585,48.33-2.585S304.251,157.176,304.251,158.61Z" transform="translate(-183.338 -24.479)" fill="#473f66" opacity="0.2" style="mix-blend-mode: multiply;isolation: isolate"/>
        <g id="Group_2978" data-name="Group 2978">
          <path id="Path_10970" data-name="Path 10970" d="M341.282,209.375a67.3,67.3,0,1,1-67.32-67.311A67.313,67.313,0,0,1,341.282,209.375Z" transform="translate(-191.19 -142.064)" fill="#c78a30"/>
          <path id="Path_10971" data-name="Path 10971" d="M339.659,209.375a67.31,67.31,0,1,1-67.329-67.311A67.321,67.321,0,0,1,339.659,209.375Z" transform="translate(-205.038 -142.064)" fill="#efa330"/>
          <g id="Group_2977" data-name="Group 2977" transform="translate(20.396 42.981)">
            <g id="Group_2976" data-name="Group 2976">
              <path id="Path_10972" data-name="Path 10972" d="M239.369,178.945v8.037L207.2,170.633V163.5l32.169-16.339v8.047l-22.943,11.868Z" transform="translate(-207.2 -142.049)" fill="#f2fbfd"/>
              <path id="Path_10973" data-name="Path 10973" d="M210.891,195.252,229.57,146.62h6.217l-18.67,48.631Z" transform="translate(-176.071 -146.62)" fill="#f2fbfd"/>
              <path id="Path_10974" data-name="Path 10974" d="M213.734,155.226V147.16L245.9,163.518v7.132L213.734,187v-8.037L236.7,167.094Z" transform="translate(-152.093 -142.066)" fill="#f2fbfd"/>
            </g>
          </g>
        </g>
      </g>
      <g id="Group_2982" data-name="Group 2982" transform="translate(1102.72 670.029)">
        <path id="Path_10975" data-name="Path 10975" d="M329.274,188.172c-3.478-5.413,3.063-9.877-4.805-18.427-5.005-5.472-14.935-4.7-19.146-11.9-7.838-13.363-19.443-11.857-19.443-11.857s-11.664-1.505-19.495,11.857c-4.212,7.2-10.048,6.051-15.075,11.538-7.831,8.528-.9,14.089-4.353,19.577-3.478,5.421-11,3.574-11,13.414h99.848C335.807,192.532,332.751,193.637,329.274,188.172Z" transform="translate(-235.959 -1.986)" fill="url(#linear-gradient-6)"/>
        <g id="Group_2980" data-name="Group 2980" transform="translate(103.073)">
          <path id="Path_10976" data-name="Path 10976" d="M321.9,153.2c-13.785,19.858-24.456,22.706-35.468,38.552-16.67,25.272-4.939,33.7-12.858,50.513-7.356,17.233-17.367,12.473-23.329,46.316-4.679,31.945,34.652,33.451,40,33.591A470.916,470.916,0,0,1,355.164,127.3C353.444,126.058,344.36,122.617,321.9,153.2Zm12.584,105.12c1.424-16.625,14.816-16.3,16.722-42.134,1.683-16.633-4.294-25.783,1.958-47.466,10.641-33.614,5.725-39.605,3.2-40.7a470.018,470.018,0,0,0-64.721,194.319c5.68,1.09,43.276,6.14,47.013-19.577C343.582,274.928,333.69,274.839,334.483,258.318Z" transform="translate(-249.859 -126.523)" fill="url(#linear-gradient-7)"/>
        </g>
        <g id="Group_2981" data-name="Group 2981" transform="translate(57.727 67.188)">
          <path id="Path_10977" data-name="Path 10977" d="M247.052,136.144a345.037,345.037,0,0,1,47.532,142.678c3.915-.156,32.724-1.26,29.291-24.611-4.375-24.789-11.709-21.275-17.07-33.9-5.806-12.324,2.766-18.486-9.432-36.98-8.031-11.583-15.854-13.674-25.961-28.215C254.972,132.725,248.313,135.254,247.052,136.144Zm12.08,128.426c2.766,18.835,30.262,15.142,34.415,14.341a343.356,343.356,0,0,0-47.369-142.234c-1.824.823-5.413,5.176,2.358,29.773,4.583,15.869.215,22.609,1.446,34.771,1.372,18.924,11.16,18.635,12.206,30.833C262.773,244.17,255.543,244.185,259.132,264.57Z" transform="translate(-243.744 -135.584)" fill="url(#linear-gradient-8)"/>
        </g>
      </g>
      <g id="Group_2988" data-name="Group 2988" transform="translate(202.705 734.092)">
        <rect id="Rectangle_783" data-name="Rectangle 783" width="8.15" height="134.389" transform="translate(26.769)" fill="#a5aaa8"/>
        <rect id="Rectangle_784" data-name="Rectangle 784" width="8.158" height="134.389" transform="translate(178.917)" fill="#a5aaa8"/>
        <path id="Path_10982" data-name="Path 10982" d="M146.872,148.906l-8.158,2.94V146.43h8.158Z" transform="translate(40.202 -62.877)" fill="#a5aaa8" opacity="0.6" style="mix-blend-mode: multiply;isolation: isolate"/>
        <path id="Path_10983" data-name="Path 10983" d="M126.347,148.906l-8.15,2.94V146.43h8.15Z" transform="translate(-91.428 -62.877)" fill="#a5aaa8" opacity="0.6" style="mix-blend-mode: multiply;isolation: isolate"/>
        <g id="Group_2986" data-name="Group 2986" transform="translate(0 15.2)">
          <path id="Path_10984" data-name="Path 10984" d="M146.872,142.834l-8.158,2.934v-5.417h8.158Z" transform="translate(40.202 -117.076)" fill="#a5aaa8" opacity="0.6" style="mix-blend-mode: multiply;isolation: isolate"/>
          <path id="Path_10985" data-name="Path 10985" d="M126.347,142.834l-8.15,2.934v-5.417h8.15Z" transform="translate(-91.428 -117.076)" fill="#a5aaa8" opacity="0.6" style="mix-blend-mode: multiply;isolation: isolate"/>
          <g id="Group_2985" data-name="Group 2985">
            <rect id="Rectangle_785" data-name="Rectangle 785" width="213.85" height="24.998" fill="#f5f2f9"/>
            <path id="Path_10986" data-name="Path 10986" d="M162.839,137.212l-26.666,25h14.134l26.651-25Zm32.5,0-26.666,25h14.148l26.643-25Zm-65.018,0-15.735,14.771v10.226h3.218l26.666-25Zm97.512,0-26.658,25H215.31l26.658-25Zm97.512,0-26.673,25h14.141l15.624-14.653V137.212Zm-32.516,0-26.651,25h14.134l26.658-25Zm-32.494,0-26.666,25H247.8l26.666-25Z" transform="translate(-114.586 -137.211)" fill="#ff7e00"/>
          </g>
        </g>
        <g id="Group_2987" data-name="Group 2987" transform="translate(0 60.061)">
          <rect id="Rectangle_786" data-name="Rectangle 786" width="213.85" height="24.976" fill="#f5f2f9"/>
          <path id="Path_10987" data-name="Path 10987" d="M162.839,143.262l-26.666,24.975h14.134l26.651-24.975Zm32.5,0-26.666,24.975h14.148l26.643-24.975Zm-65.018,0-15.735,14.757v10.218h3.218l26.666-24.975Zm97.512,0-26.658,24.975H215.31l26.658-24.975Zm97.512,0-26.673,24.975h14.141l15.624-14.653V143.262Zm-32.516,0-26.651,24.975h14.134l26.658-24.975Zm-32.494,0L233.67,168.237H247.8l26.666-24.975Z" transform="translate(-114.586 -143.26)" fill="#ff7e00"/>
        </g>
        <rect id="Rectangle_787" data-name="Rectangle 787" width="147.63" height="7.438" transform="translate(32.688 103.873)" fill="#a5aaa8"/>
      </g>
      <g id="Group_3011" data-name="Group 3011" transform="translate(252.789 463.773)">
        <g id="Group_2991" data-name="Group 2991" transform="translate(110.458 41.545)">
          <path id="Path_10992" data-name="Path 10992" d="M138.47,180.076s31.248-50.706,43.936-73.953c0,0,5.48-.845,8.439,5.272,0,0-25.524,59.693-43.409,81.517C129.527,214.75,138.47,180.076,138.47,180.076Z" transform="translate(-136.237 -92.942)" fill="#4e89f1"/>
          <path id="Path_10993" data-name="Path 10993" d="M152.112,112.367c1.52-3.166.875-6.607-1.394-7.719-2.3-1.1-5.4.578-6.9,3.715-1.513,3.166-.9,6.614,1.4,7.712S150.592,115.511,152.112,112.367Z" transform="translate(-92.937 -104.311)" fill="#fdfefd"/>
        </g>
        <g id="Group_3002" data-name="Group 3002" transform="translate(139.832)">
          <path id="Path_10994" data-name="Path 10994" d="M234.133,106.859l-7.311-7.808L213.926,105H154.67a8.176,8.176,0,0,0-8.157,8.135v37.922l-6.036,2.781,8.083,8.439c.2.23.4.438.608.638l.089.089h.022a8.049,8.049,0,0,0,5.391,2.084h74.361a8.167,8.167,0,0,0,8.15-8.142v-43.81A8.076,8.076,0,0,0,234.133,106.859Z" transform="translate(-138.41 -96.508)" fill="#e29616"/>
          <g id="Group_2993" data-name="Group 2993">
            <path id="Rectangle_788" data-name="Rectangle 788" d="M1.1,0H89.565a1.1,1.1,0,0,1,1.1,1.1V59.005a1.1,1.1,0,0,1-1.1,1.1H1.1a1.1,1.1,0,0,1-1.1-1.1V1.1A1.1,1.1,0,0,1,1.1,0Z" fill="#fecb15"/>
            <g id="Group_2992" data-name="Group 2992" transform="translate(8.167 8.154)">
              <path id="Rectangle_789" data-name="Rectangle 789" d="M.55,0H73.8a.548.548,0,0,1,.548.548v42.7a.549.549,0,0,1-.549.549H.548A.548.548,0,0,1,0,43.249V.55A.55.55,0,0,1,.55,0Z" fill="#fff"/>
            </g>
          </g>
        </g>
        <g id="Group_3010" data-name="Group 3010" transform="translate(0 56.117)">
          <path id="Path_10998" data-name="Path 10998" d="M121.341,161.788c0,4.078,34.326,7.356,76.63,7.356,42.327,0,76.638-3.278,76.638-7.356,0-4.034-34.311-7.319-76.638-7.319C155.667,154.469,121.341,157.754,121.341,161.788Z" transform="translate(-121.341 202.9)" fill="#3c4cb1" opacity="0.2" style="mix-blend-mode: multiply;isolation: isolate"/>
          <g id="Group_3009" data-name="Group 3009" transform="translate(20.807)">
            <g id="Group_3008" data-name="Group 3008">
              <g id="Group_3003" data-name="Group 3003" transform="translate(84.008 348.359)">
                <path id="Path_10999" data-name="Path 10999" d="M135.759,153.732v8.87h7.958v-9.349Z" transform="translate(-133.659 -153.254)" fill="#fdfefd"/>
                <path id="Path_11000" data-name="Path 11000" d="M137.575,154.113a5.214,5.214,0,0,0-2.1,4.449v6.451h31.938s.571-3.819-3.812-3.819-12.072-3.033-13.5-4.508c-1.846-1.861-3.159-2.573-4.568-2.573Z" transform="translate(-135.476 -147.743)" fill="url(#linear-gradient-9)"/>
              </g>
              <g id="Group_3004" data-name="Group 3004" transform="translate(0 342.167)">
                <path id="Path_11001" data-name="Path 11001" d="M129.082,152.419l-4.182,7.828,7.032,3.758,4.388-8.262Z" transform="translate(-119.32 -152.419)" fill="#fdfefd"/>
                <path id="Path_11002" data-name="Path 11002" d="M131.14,153.119a5.251,5.251,0,0,0-3.952,2.944c-1.505,2.781-3.04,5.688-3.04,5.688l21.7,11.575,4.82-.089s1.023-4.894-1.869-4.894c-6.933,0-7.252-5.087-7.838-7.052-.734-2.514-1.565-3.745-2.8-4.42C136.924,156.219,131.14,153.119,131.14,153.119Z" transform="translate(-124.147 -147.928)" fill="url(#linear-gradient-10)"/>
              </g>
              <path id="Path_11003" data-name="Path 11003" d="M180.625,133.343c-11.939,14.779-8.594,47.955-17.893,70.779s-37.625,87.063-37.625,87.063a14,14,0,0,0,10.819,5.383s58.069-87.79,67.368-118.223,4.664-46.9,4.664-46.9S183.947,129.25,180.625,133.343Z" transform="translate(-117.995 51.42)" fill="#0c337d"/>
              <path id="Path_11004" data-name="Path 11004" d="M135.324,134.971c-9.847,27.059,11.123,55.919,14.512,98.194,3.367,42.26,3.367,75.651,3.367,75.651s7.475,2.262,12.272,0c0,0,11.805-138.8,11.805-163.449C177.28,120.748,136.718,131.122,135.324,134.971Z" transform="translate(-69.172 42.673)" fill="#0c4296"/>
              <g id="Group_3007" data-name="Group 3007" transform="translate(74.843 46.199)">
                <g id="Group_3006" data-name="Group 3006">
                  <g id="Group_3005" data-name="Group 3005">
                    <path id="Path_11005" data-name="Path 11005" d="M160.475,134.441c.43-11.657-5.473-21.935-5.473-21.935-1.631.9-5.8,1.728-8.661,2.684-2.892.994-1.854,5.161-1.542,7.178.282,2.032-.134,6.8-1.09,7.378-1.06-2.121-2.84-9.314-5.51-5.977-2.64,3.359-1.275,4.234-.044,8.394s-3.915,4.62-3.915,4.62c4.108,9.655,6.177,12.436,6.177,12.436s13.511,6.385,11.739-1.906c-.882-4.145-2.677-5.5-2.677-5.5C157.376,144.392,160.179,140.818,160.475,134.441Z" transform="translate(-134.24 -112.506)" fill="#fdfefd"/>
                  </g>
                </g>
              </g>
              <path id="Path_11006" data-name="Path 11006" d="M149.721,117.263s-16.136,3.255-16.136,28.883c0,25.657-1.038,76.185-1.038,76.185s29.394,6.77,46.68,2.136c-5.324-57.565,8.528-64.054,1.713-85.224C176.728,126.11,166.4,115.536,149.721,117.263Z" transform="translate(-70.258 -36.976)" fill="#6eb1ff"/>
              <path id="Path_11007" data-name="Path 11007" d="M144.066,183.145c9.232-5.784,53.175-54.258,69.207-75.31,0,0,5.562-.015,7.564,6.481,0,0-43.291,63.928-64.284,82.829C135.553,216.025,126.8,193.972,144.066,183.145Z" transform="translate(-55.245 -96.273)" fill="#6eb1ff"/>
              <path id="Path_11008" data-name="Path 11008" d="M155.086,114.709c1.98-2.892,1.891-6.392-.208-7.831s-5.4-.237-7.371,2.64-1.883,6.4.208,7.831C149.821,118.787,153.121,117.608,155.086,114.709Z" transform="translate(16.579 -106.276)" fill="#fdfefd"/>
            </g>
            <path id="Path_11009" data-name="Path 11009" d="M144.5,194.689c-.549-16.981-.838-32.65,14.7-48.7,11.175-11.553,9.143-37.6,33.5-33.985a10.974,10.974,0,0,1,8.594,5.932c-2.506,15.773-15.164,15.046-15.164,35.683,0,31.545-11,23.2-13.585,40.547-2.573,17.33,6.155,34.378-2.573,45.464-3.374,4.279-7.274,6.451-11.078,7.074a45.41,45.41,0,0,1-2.284,4.879c-14.534,26.71-30.944,9.84-23.915-2.825,7.03-12.636,1.854-8.958-2.336-18.731C121.346,209.03,132.15,198.538,144.5,194.689Z" transform="translate(-105.685 -71.733)" fill="#143f58"/>
          </g>
        </g>
      </g>
      <g id="Group_3019" data-name="Group 3019" transform="translate(187.671 526.78)">
        <g id="Group_3013" data-name="Group 3013" transform="translate(1016.009)">
          <path id="Path_11010" data-name="Path 11010" d="M308.952,102.715a16.136,16.136,0,1,1-16.136-16.143A16.129,16.129,0,0,1,308.952,102.715Z" transform="translate(-276.68 -86.572)" fill="#6eb1ff"/>
          <path id="Path_11011" data-name="Path 11011" d="M290.785,94.279a6.4,6.4,0,1,1-6.4-6.392A6.394,6.394,0,0,1,290.785,94.279Z" transform="translate(-268.25 -78.136)" fill="#fff"/>
          <g id="Group_3012" data-name="Group 3012" transform="translate(7 63.038)">
            <path id="Path_11012" data-name="Path 11012" d="M295.9,104.209a9.136,9.136,0,1,1-9.136-9.136A9.135,9.135,0,0,1,295.9,104.209Z" transform="translate(-277.624 -95.073)" fill="#6eb1ff"/>
            <path id="Path_11013" data-name="Path 11013" d="M295.9,111.765a9.136,9.136,0,1,1-9.136-9.136A9.129,9.129,0,0,1,295.9,111.765Z" transform="translate(-277.624 -46.599)" fill="#6eb1ff"/>
            <path id="Path_11014" data-name="Path 11014" d="M295.9,119.322a9.136,9.136,0,1,1-9.136-9.136A9.129,9.129,0,0,1,295.9,119.322Z" transform="translate(-277.624 1.882)" fill="#6eb1ff"/>
            <path id="Path_11015" data-name="Path 11015" d="M295.9,126.877a9.136,9.136,0,1,1-9.136-9.136A9.133,9.133,0,0,1,295.9,126.877Z" transform="translate(-277.624 50.35)" fill="#6eb1ff"/>
          </g>
        </g>
      </g>
      <g id="Group_3039" data-name="Group 3039" transform="translate(848.976 548.079)">
        <g id="Group_3037" data-name="Group 3037">
          <g id="Group_3024" data-name="Group 3024" transform="translate(207.886 25.848)">
            <path id="Path_11019" data-name="Path 11019" d="M311.541,121.351s-4.2.371-14.119,9.084c-6.229,5.458-13.993,13.207-21.816,18.612-20.266,13.978-43.847,23.744-43.847,23.744a10.47,10.47,0,0,0,1.921,7.5c8.609-1.342,61.829-21.089,76.267-32.88S322.923,118.74,311.541,121.351Z" transform="translate(-217.564 -65.334)" fill="#4e89f1"/>
            <g id="Group_3020" data-name="Group 3020" transform="translate(0 292.403)">
              <path id="Path_11020" data-name="Path 11020" d="M240.117,153.473v9.117h-7.538V153Z" transform="translate(-211.791 -152.995)" fill="#ffad97"/>
              <path id="Path_11021" data-name="Path 11021" d="M258.1,153.876a5.467,5.467,0,0,1,1.987,4.56v6.622H229.8a3.35,3.35,0,0,1,3.611-3.915c4.16,0,11.457-3.122,12.814-4.627,1.743-1.913,3-2.64,4.338-2.64Z" transform="translate(-229.775 -147.344)" fill="url(#linear-gradient-11)"/>
            </g>
            <g id="Group_3021" data-name="Group 3021" transform="translate(84.325 287.305)">
              <path id="Path_11022" data-name="Path 11022" d="M250.239,152.308l3.114,8.523-7.039,2.571-3.309-8.973Z" transform="translate(-229.224 -152.308)" fill="#ffad97"/>
              <path id="Path_11023" data-name="Path 11023" d="M264.234,153.07a5.4,5.4,0,0,1,3.426,3.582c1.112,3.04,2.254,6.17,2.254,6.17l-20.325,7.453-7.979.052s-1.958-4.931,2.173-4.805c8.135.223,9.514-4.049,10.263-5.9.971-2.4,1.9-3.515,3.137-3.975S264.234,153.07,264.234,153.07Z" transform="translate(-241.147 -147.417)" fill="url(#linear-gradient-12)"/>
            </g>
            <g id="Group_3023" data-name="Group 3023" transform="translate(63.688)">
              <g id="Group_3022" data-name="Group 3022">
                <path id="Path_11024" data-name="Path 11024" d="M241.473,142.213c-4.294-12.977-1.008-26.443-1.008-26.443,2.15.489,7.067.052,10.6.208s3.76,5.183,4.078,7.564,2.365,7.571,3.634,7.934c.5-2.744.156-11.383,4.234-8.5,4.041,2.914,2.8,4.323,2.781,9.388s5.9,3.93,5.9,3.93c-.971,11.931-.868,12.132-.86,15.869-.007,5.947-17.589,21.7-17.159,5.465a35.751,35.751,0,0,1,2.514-10.723C248.184,152.372,243.853,149.273,241.473,142.213Z" transform="translate(-232.593 -99.404)" fill="#ffad97"/>
                <path id="Path_11025" data-name="Path 11025" d="M246.235,129.929s-6.815-.986-7.8-4.775,8.4-4.138,15.913-7.541c7.49-3.426,18.739-7.912,24.552,1.965,0,0,6.207,3.07,5.7,9.833-.541,6.748-5.243,12-7.134,21.045,0,0-5.925,1.142-5.9-3.93s1.26-6.474-2.781-9.388c-4.078-2.885-3.737,5.754-4.234,8.5-1.268-.363-3.315-5.547-3.634-7.934s-.526-7.408-4.078-7.564S248.386,130.419,246.235,129.929Z" transform="translate(-238.363 -113.563)" fill="#444199"/>
              </g>
              <path id="Path_11026" data-name="Path 11026" d="M255.514,118.507s.378,11.813-4.538,12.947c-4.939,1.12-11.39-1.572-11.434,2.425s5.606,7.853,10.218,6.229c4.59-1.631,7.2-4.2,7.49-7.423s-.126-15.3-.126-15.3Z" transform="translate(-230.81 -89.03)" fill="#444199"/>
            </g>
            <path id="Path_11027" data-name="Path 11027" d="M252.706,134.535s-14.237,47.777-17.174,69.667c-2.951,21.846-3.359,69.66-3.359,69.66a15.058,15.058,0,0,0,13.459,0s4.827-64.632,23.128-90.2c18.331-25.546,12.947-38.174,12.947-38.174Z" transform="translate(-214.389 20.98)" fill="#192152"/>
            <path id="Path_11028" data-name="Path 11028" d="M241.8,130.466c.823,2.121-1.127,4.835-4.39,6.118s-6.54.6-7.371-1.505,1.142-4.857,4.375-6.132C237.672,127.685,240.972,128.352,241.8,130.466Z" transform="translate(-229.247 -18.96)" fill="#ffad97"/>
            <path id="Path_11029" data-name="Path 11029" d="M283.274,135.278s-13.8,38.293,1.357,78.692,20.185,53.872,20.185,53.872a12.459,12.459,0,0,1-11.5,2.988c-6.333-9.462-44.87-72.426-52.026-103.147-5.057-21.86-6.273-33.035-6.273-33.035Z" transform="translate(-196.157 21.705)" fill="#0c337d"/>
            <path id="Path_11030" data-name="Path 11030" d="M266.206,138.971s10.522-16.418,24.2-18.086,18.716,10.1,15.15,27.57S285.775,204.1,288.3,225.234c0,0-26.184,14.846-53.657,0C234.639,225.234,252.643,161.588,266.206,138.971Z" transform="translate(-198.569 -67.613)" fill="#6eb1ff"/>
          </g>
          <g id="Group_3036" data-name="Group 3036">
            <rect id="Rectangle_790" data-name="Rectangle 790" width="258.277" height="165.26" fill="#52738a"/>
            <rect id="Rectangle_791" data-name="Rectangle 791" width="258.277" height="20.472" fill="#a6a6a6"/>
            <rect id="Rectangle_792" data-name="Rectangle 792" width="12.275" height="12.289" transform="translate(4.838 4.359)" fill="#fff"/>
            <rect id="Rectangle_793" data-name="Rectangle 793" width="156.91" height="12.289" transform="translate(41.313 4.359)" fill="#fff"/>
            <path id="Path_11031" data-name="Path 11031" d="M206.851,117.476l-3.969-3.2,3.969-3.223Z" transform="translate(-194.416 -103.818)"/>
            <g id="Group_3025" data-name="Group 3025" transform="translate(22.398 4.359)">
              <rect id="Rectangle_794" data-name="Rectangle 794" width="12.296" height="12.289" fill="#fff"/>
              <path id="Path_11032" data-name="Path 11032" d="M205.392,117.476l3.969-3.2-3.969-3.223Z" transform="translate(-200.713 -108.178)"/>
            </g>
            <g id="Group_3026" data-name="Group 3026" transform="translate(208.103 5.064)">
              <path id="Path_11033" data-name="Path 11033" d="M240.363,116.055a5.28,5.28,0,1,1-5.272-5.295A5.3,5.3,0,0,1,240.363,116.055Z" transform="translate(-229.804 -110.76)" fill="#fb392e"/>
              <path id="Path_11034" data-name="Path 11034" d="M242.577,116.055a5.276,5.276,0,1,1-5.265-5.295A5.291,5.291,0,0,1,242.577,116.055Z" transform="translate(-215.556 -110.76)" fill="#fecb15"/>
              <path id="Path_11035" data-name="Path 11035" d="M244.814,116.055a5.283,5.283,0,1,1-5.28-5.295A5.3,5.3,0,0,1,244.814,116.055Z" transform="translate(-201.301 -110.76)" fill="#26a659"/>
            </g>
            <g id="Group_3027" data-name="Group 3027" transform="translate(15.744 30.06)">
              <rect id="Rectangle_795" data-name="Rectangle 795" width="2.889" height="125.351" transform="translate(11.717)" fill="#e0e0e0"/>
              <rect id="Rectangle_796" data-name="Rectangle 796" width="4.83" height="4.844" transform="translate(0 3.874)" fill="#e0e0e0"/>
              <rect id="Rectangle_797" data-name="Rectangle 797" width="4.83" height="4.852" transform="translate(0 14.49)" fill="#e0e0e0"/>
              <rect id="Rectangle_798" data-name="Rectangle 798" width="4.83" height="4.852" transform="translate(0 25.099)" fill="#e0e0e0"/>
              <rect id="Rectangle_799" data-name="Rectangle 799" width="4.83" height="4.852" transform="translate(0 35.729)" fill="#e0e0e0"/>
              <rect id="Rectangle_800" data-name="Rectangle 800" width="4.83" height="4.83" transform="translate(0 46.346)" fill="#e0e0e0"/>
              <rect id="Rectangle_801" data-name="Rectangle 801" width="4.83" height="4.844" transform="translate(0 56.94)" fill="#e0e0e0"/>
              <rect id="Rectangle_802" data-name="Rectangle 802" width="4.83" height="4.867" transform="translate(0 67.549)" fill="#e0e0e0"/>
              <rect id="Rectangle_803" data-name="Rectangle 803" width="4.83" height="4.837" transform="translate(0 78.173)" fill="#e0e0e0"/>
              <rect id="Rectangle_804" data-name="Rectangle 804" width="4.83" height="4.844" transform="translate(0 88.781)" fill="#e0e0e0"/>
              <rect id="Rectangle_805" data-name="Rectangle 805" width="4.83" height="4.867" transform="translate(0 99.375)" fill="#e0e0e0"/>
              <rect id="Rectangle_806" data-name="Rectangle 806" width="4.83" height="4.823" transform="translate(0 110.013)" fill="#e0e0e0"/>
            </g>
            <g id="Group_3031" data-name="Group 3031" transform="translate(38.44 32.411)">
              <g id="Group_3028" data-name="Group 3028">
                <path id="Path_11036" data-name="Path 11036" d="M210.632,114.671l-3.53,3.737a.712.712,0,0,0,0,.942l3.4,3.53a.685.685,0,0,0,1.164-.489.657.657,0,0,0-.193-.467s-2.269-2.358-2.944-3.048c.675-.719,3.092-3.285,3.092-3.285a.834.834,0,0,0,.185-.46.748.748,0,0,0-.237-.5A.655.655,0,0,0,210.632,114.671Z" transform="translate(-206.924 -114.448)" fill="#fff"/>
              </g>
              <g id="Group_3029" data-name="Group 3029" transform="translate(20.103)">
                <path id="Path_11037" data-name="Path 11037" d="M209.843,114.627a.7.7,0,0,0-.03.964s2.41,2.566,3.077,3.285c-.667.69-2.929,3.048-2.929,3.048a.593.593,0,0,0-.185.467.634.634,0,0,0,.208.5.69.69,0,0,0,.949-.015l3.4-3.53a.712.712,0,0,0,0-.942l-3.522-3.737A.689.689,0,0,0,209.843,114.627Z" transform="translate(-209.635 -114.448)" fill="#fff"/>
              </g>
              <g id="Group_3030" data-name="Group 3030" transform="translate(8.116 0.355)">
                <path id="Path_11038" data-name="Path 11038" d="M214.763,114.69l-6.533,6.689a.639.639,0,0,0,0,.949.674.674,0,0,0,.964-.022l6.533-6.652a.674.674,0,0,0-.007-.964A.685.685,0,0,0,214.763,114.69Z" transform="translate(-208.019 -114.496)" fill="#fff"/>
              </g>
            </g>
            <g id="Group_3035" data-name="Group 3035" transform="translate(38.44 147.271)">
              <g id="Group_3032" data-name="Group 3032">
                <path id="Path_11039" data-name="Path 11039" d="M210.632,130.142l-3.53,3.752a.712.712,0,0,0,0,.942l3.4,3.507a.667.667,0,0,0,.942.022.58.58,0,0,0,.222-.475.706.706,0,0,0-.193-.5s-2.269-2.328-2.944-3.033c.675-.7,3.092-3.278,3.092-3.278a.857.857,0,0,0,.185-.475.674.674,0,0,0-.237-.489A.682.682,0,0,0,210.632,130.142Z" transform="translate(-206.924 -129.937)" fill="#fff"/>
              </g>
              <g id="Group_3033" data-name="Group 3033" transform="translate(20.103)">
                <path id="Path_11040" data-name="Path 11040" d="M209.843,130.112a.736.736,0,0,0-.208.489.848.848,0,0,0,.178.475l3.077,3.278c-.667.7-2.929,3.033-2.929,3.033a.642.642,0,0,0-.185.5.545.545,0,0,0,.208.475.676.676,0,0,0,.949-.022l3.4-3.507a.712.712,0,0,0,0-.942l-3.522-3.752A.717.717,0,0,0,209.843,130.112Z" transform="translate(-209.635 -129.937)" fill="#fff"/>
              </g>
              <g id="Group_3034" data-name="Group 3034" transform="translate(8.116 0.364)">
                <path id="Path_11041" data-name="Path 11041" d="M214.763,130.182l-6.533,6.652a.664.664,0,0,0,0,.971.674.674,0,0,0,.964-.022l6.533-6.637a.683.683,0,0,0-.007-.971A.692.692,0,0,0,214.763,130.182Z" transform="translate(-208.019 -129.987)" fill="#fff"/>
              </g>
            </g>
            <rect id="Rectangle_807" data-name="Rectangle 807" width="22.065" height="4.366" transform="translate(33.427 43.747)" fill="#e29616"/>
            <rect id="Rectangle_808" data-name="Rectangle 808" width="24.788" height="4.381" transform="translate(33.427 101.73)" fill="#f19b0f"/>
            <rect id="Rectangle_809" data-name="Rectangle 809" width="16.88" height="4.388" transform="translate(33.427 140.501)" fill="#f19b0f"/>
            <rect id="Rectangle_810" data-name="Rectangle 810" width="35.252" height="4.359" transform="translate(38.873 53.443)" fill="#17bb99"/>
            <rect id="Rectangle_811" data-name="Rectangle 811" width="32.276" height="4.366" transform="translate(38.873 111.6)" fill="#fbdd82"/>
            <rect id="Rectangle_812" data-name="Rectangle 812" width="31.661" height="4.352" transform="translate(38.873 120.927)" fill="#89c0c8"/>
            <rect id="Rectangle_813" data-name="Rectangle 813" width="16.96" height="4.352" transform="translate(38.873 130.623)" fill="#17bb99"/>
            <rect id="Rectangle_814" data-name="Rectangle 814" width="72.199" height="4.352" transform="translate(59.88 130.623)" fill="#fbdd82"/>
            <rect id="Rectangle_815" data-name="Rectangle 815" width="52.509" height="4.352" transform="translate(74.248 120.927)" fill="#fbdd82"/>
            <rect id="Rectangle_816" data-name="Rectangle 816" width="16.96" height="4.352" transform="translate(130.79 120.927)" fill="#e29616"/>
            <rect id="Rectangle_817" data-name="Rectangle 817" width="33.709" height="4.366" transform="translate(155.353 111.6)" fill="#89c0c8"/>
            <rect id="Rectangle_818" data-name="Rectangle 818" width="76.536" height="4.366" transform="translate(74.566 111.6)" fill="#17bb99"/>
            <rect id="Rectangle_819" data-name="Rectangle 819" width="20.233" height="4.359" transform="translate(77.76 53.443)" fill="#fbdd82"/>
            <rect id="Rectangle_820" data-name="Rectangle 820" width="23.325" height="4.353" transform="translate(38.873 73.074)" fill="#fbdd82"/>
            <rect id="Rectangle_821" data-name="Rectangle 821" width="37.838" height="4.363" transform="translate(65.971 73.057)" fill="#17bb99"/>
            <rect id="Rectangle_822" data-name="Rectangle 822" width="36.229" height="4.359" transform="translate(101.635 53.443)" fill="#89c0c8"/>
            <rect id="Rectangle_823" data-name="Rectangle 823" width="40.184" height="4.381" transform="translate(38.873 63.364)" fill="#89c0c8"/>
            <rect id="Rectangle_824" data-name="Rectangle 824" width="39.286" height="4.381" transform="translate(83.205 63.364)" fill="#e29616"/>
            <rect id="Rectangle_825" data-name="Rectangle 825" width="27.445" height="4.381" transform="translate(126.395 63.364)" fill="#17bb99"/>
            <rect id="Rectangle_826" data-name="Rectangle 826" width="47.621" height="4.337" transform="translate(38.873 82.772)" fill="#89c0c8"/>
            <rect id="Rectangle_827" data-name="Rectangle 827" width="25.411" height="4.337" transform="translate(90.128 82.772)" fill="#fbdd82"/>
            <rect id="Rectangle_828" data-name="Rectangle 828" width="47.621" height="4.367" transform="translate(38.873 91.968)" fill="#17bb99"/>
            <rect id="Rectangle_829" data-name="Rectangle 829" width="44.159" height="4.367" transform="translate(90.128 91.968)" fill="#89c0c8"/>
            <rect id="Rectangle_830" data-name="Rectangle 830" width="49.25" height="4.337" transform="translate(119.768 82.772)" fill="#17bb99"/>
            <rect id="Rectangle_831" data-name="Rectangle 831" width="11.377" height="4.366" transform="translate(59.721 43.747)" fill="#17bb99"/>
          </g>
        </g>
        <g id="Group_3038" data-name="Group 3038" transform="translate(211.239 86.778)">
          <path id="Path_11042" data-name="Path 11042" d="M242.159,132.853c.831,2.128-1.127,4.857-4.368,6.125s-6.562.6-7.371-1.528c-.838-2.1,1.127-4.842,4.368-6.118C238.043,130.057,241.35,130.747,242.159,132.853Z" transform="translate(-230.227 -64.606)" fill="#ffad97"/>
          <path id="Path_11043" data-name="Path 11043" d="M310.9,122.324s-4.412.845-13.985,10.982c-6.021,6.385-13.414,15.342-21.111,21.794-19.962,16.773-43.817,29.424-43.817,29.424a11.139,11.139,0,0,0,2.766,7.7c8.95-2.3,63.023-28.408,77.075-42.29C325.852,136.08,322.612,118.446,310.9,122.324Z" transform="translate(-219.019 -121.78)" fill="#4e89f1"/>
        </g>
      </g>
    </g>
    <g id="Group_2644" data-name="Group 2644" transform="translate(588.407 486.373)">
      <g id="Group_2640" data-name="Group 2640">
        <rect id="Rectangle_720" data-name="Rectangle 720" width="44.665" height="3.402" fill="#e29616"/>
      </g>
      <g id="Group_2641" data-name="Group 2641" transform="translate(0 16.75)">
        <rect id="Rectangle_721" data-name="Rectangle 721" width="44.665" height="3.402" fill="#e29616"/>
      </g>
      <g id="Group_2642" data-name="Group 2642" transform="translate(0 8.375)">
        <rect id="Rectangle_722" data-name="Rectangle 722" width="44.665" height="3.402" fill="#e29616"/>
      </g>
      <g id="Group_2643" data-name="Group 2643" transform="translate(0 25.126)">
        <rect id="Rectangle_723" data-name="Rectangle 723" width="44.665" height="3.402" fill="#e29616"/>
      </g>
    </g>
    <g id="Group_264" data-name="Group 264" transform="translate(712.593 500.901)">
      <rect id="Rectangle_28" data-name="Rectangle 28" width="143.083" height="109.389" rx="11.399" fill="#52738a"/>
      <g id="Group_237" data-name="Group 237" transform="translate(15.829 77.722)">
        <path id="Path_323" data-name="Path 323" d="M451.363,155.019a3.908,3.908,0,1,1,3.908-3.908A3.912,3.912,0,0,1,451.363,155.019Zm0-7.166a3.258,3.258,0,1,0,3.258,3.258A3.262,3.262,0,0,0,451.363,147.853Z" transform="translate(-447.455 -147.203)" fill="#fff"/>
      </g>
      <g id="Group_238" data-name="Group 238" transform="translate(41.731 77.722)">
        <path id="Path_324" data-name="Path 324" d="M471.3,155.019a3.908,3.908,0,1,1,3.908-3.908A3.912,3.912,0,0,1,471.3,155.019Zm0-7.166a3.258,3.258,0,1,0,3.258,3.258A3.262,3.262,0,0,0,471.3,147.853Z" transform="translate(-467.393 -147.203)" fill="#fff"/>
      </g>
      <g id="Group_239" data-name="Group 239" transform="translate(67.634 77.722)">
        <path id="Path_325" data-name="Path 325" d="M491.239,155.019a3.908,3.908,0,1,1,3.908-3.908A3.912,3.912,0,0,1,491.239,155.019Zm0-7.166a3.258,3.258,0,1,0,3.258,3.258A3.262,3.262,0,0,0,491.239,147.853Z" transform="translate(-487.331 -147.203)" fill="#fff"/>
      </g>
      <g id="Group_240" data-name="Group 240" transform="translate(93.536 77.722)">
        <path id="Path_326" data-name="Path 326" d="M511.177,155.019a3.908,3.908,0,1,1,3.908-3.908A3.912,3.912,0,0,1,511.177,155.019Zm0-7.166a3.258,3.258,0,1,0,3.258,3.258A3.262,3.262,0,0,0,511.177,147.853Z" transform="translate(-507.269 -147.203)" fill="#fff"/>
      </g>
      <g id="Group_241" data-name="Group 241" transform="translate(119.438 77.722)">
        <path id="Path_327" data-name="Path 327" d="M531.115,155.019a3.908,3.908,0,1,1,3.908-3.908A3.912,3.912,0,0,1,531.115,155.019Zm0-7.166a3.258,3.258,0,1,0,3.258,3.258A3.262,3.262,0,0,0,531.115,147.853Z" transform="translate(-527.207 -147.203)" fill="#fff"/>
      </g>
      <g id="Group_242" data-name="Group 242" transform="translate(19.255 17.828)">
        <path id="Path_328" data-name="Path 328" d="M450.552,142.236l-.46-.459,5.681-5.681a4.225,4.225,0,0,1,5.976,0l2.353,2.351a3.581,3.581,0,0,0,5.058,0l17.6-17.6a4.231,4.231,0,0,1,5.976,0l12.689,12.689a3.581,3.581,0,0,0,5.058,0l9.379-9.379a4.23,4.23,0,0,1,5.976,0,3.579,3.579,0,0,0,5.059,0L553.955,101.1l.459.459-23.057,23.056a4.229,4.229,0,0,1-5.976,0,3.581,3.581,0,0,0-5.058,0l-9.379,9.379a4.232,4.232,0,0,1-5.977,0l-12.687-12.687a3.579,3.579,0,0,0-5.059,0l-17.6,17.6a4.233,4.233,0,0,1-5.977,0l-2.352-2.351a3.58,3.58,0,0,0-5.059,0Z" transform="translate(-450.092 -101.1)" fill="#fff"/>
      </g>
      <g id="Group_243" data-name="Group 243" transform="translate(114.225 17.732)">
        <path id="Path_329" data-name="Path 329" d="M532.64,110.473h-.65v-8.8h-8.8v-.65h9.446Z" transform="translate(-523.194 -101.026)" fill="#fff"/>
      </g>
      <g id="Group_247" data-name="Group 247" transform="translate(123.021 29.79)">
        <g id="Group_244" data-name="Group 244" transform="translate(0 47.282)">
          <path id="Path_330" data-name="Path 330" d="M530.29,148a.325.325,0,0,1-.325-.325v-.65a.325.325,0,1,1,.65,0v.65A.325.325,0,0,1,530.29,148Z" transform="translate(-529.965 -146.703)" fill="#fff"/>
        </g>
        <g id="Group_245" data-name="Group 245" transform="translate(0 1.981)">
          <path id="Path_331" data-name="Path 331" d="M530.29,156.451a.325.325,0,0,1-.325-.325v-1.332a.325.325,0,1,1,.65,0v1.332A.325.325,0,0,1,530.29,156.451Zm0-2.665a.325.325,0,0,1-.325-.325V152.13a.325.325,0,1,1,.65,0v1.332A.325.325,0,0,1,530.29,153.786Zm0-2.665a.325.325,0,0,1-.325-.325v-1.333a.325.325,0,1,1,.65,0V150.8A.325.325,0,0,1,530.29,151.122Zm0-2.665a.325.325,0,0,1-.325-.325V146.8a.325.325,0,1,1,.65,0v1.333A.325.325,0,0,1,530.29,148.457Zm0-2.665a.325.325,0,0,1-.325-.325v-1.333a.325.325,0,1,1,.65,0v1.333A.325.325,0,0,1,530.29,145.793Zm0-2.666a.324.324,0,0,1-.325-.325V141.47a.325.325,0,1,1,.65,0V142.8A.324.324,0,0,1,530.29,143.127Zm0-2.663a.325.325,0,0,1-.325-.325v-1.333a.325.325,0,1,1,.65,0v1.333A.325.325,0,0,1,530.29,140.464Zm0-2.666a.324.324,0,0,1-.325-.325v-1.332a.325.325,0,1,1,.65,0v1.332A.324.324,0,0,1,530.29,137.8Zm0-2.665a.325.325,0,0,1-.325-.325v-1.332a.325.325,0,1,1,.65,0v1.332A.325.325,0,0,1,530.29,135.133Zm0-2.665a.325.325,0,0,1-.325-.325v-1.333a.325.325,0,1,1,.65,0v1.333A.325.325,0,0,1,530.29,132.469Zm0-2.665a.325.325,0,0,1-.325-.325v-1.333a.325.325,0,1,1,.65,0v1.333A.325.325,0,0,1,530.29,129.8Zm0-2.665a.325.325,0,0,1-.325-.325v-1.333a.325.325,0,1,1,.65,0v1.333A.325.325,0,0,1,530.29,127.14Zm0-2.665a.325.325,0,0,1-.325-.325v-1.333a.325.325,0,1,1,.65,0v1.333A.325.325,0,0,1,530.29,124.475Zm0-2.665a.325.325,0,0,1-.325-.325v-1.333a.325.325,0,1,1,.65,0v1.333A.325.325,0,0,1,530.29,121.81Zm0-2.666a.324.324,0,0,1-.325-.325v-1.332a.325.325,0,1,1,.65,0v1.332A.324.324,0,0,1,530.29,119.145Zm0-2.665a.325.325,0,0,1-.325-.325v-1.332a.325.325,0,1,1,.65,0v1.332A.325.325,0,0,1,530.29,116.48Zm0-2.665a.325.325,0,0,1-.325-.325v-1.333a.325.325,0,1,1,.65,0v1.333A.325.325,0,0,1,530.29,113.816Z" transform="translate(-529.965 -111.833)" fill="#fff"/>
        </g>
        <g id="Group_246" data-name="Group 246">
          <path id="Path_332" data-name="Path 332" d="M530.29,111.607a.325.325,0,0,1-.325-.325v-.65a.325.325,0,1,1,.65,0v.65A.325.325,0,0,1,530.29,111.607Z" transform="translate(-529.965 -110.308)" fill="#fff"/>
        </g>
      </g>
      <g id="Group_251" data-name="Group 251" transform="translate(97.119 41.927)">
        <g id="Group_248" data-name="Group 248" transform="translate(0 35.146)">
          <path id="Path_333" data-name="Path 333" d="M510.352,148a.325.325,0,0,1-.325-.325v-.65a.325.325,0,1,1,.65,0v.65A.325.325,0,0,1,510.352,148Z" transform="translate(-510.027 -146.703)" fill="#fff"/>
        </g>
        <g id="Group_249" data-name="Group 249" transform="translate(0 1.927)">
          <path id="Path_334" data-name="Path 334" d="M510.352,153.723a.325.325,0,0,1-.325-.325v-1.277a.325.325,0,1,1,.65,0V153.4A.325.325,0,0,1,510.352,153.723Zm0-2.555a.324.324,0,0,1-.325-.325v-1.277a.325.325,0,1,1,.65,0v1.277A.324.324,0,0,1,510.352,151.168Zm0-2.554a.325.325,0,0,1-.325-.325v-1.278a.325.325,0,1,1,.65,0v1.278A.325.325,0,0,1,510.352,148.614Zm0-2.555a.325.325,0,0,1-.325-.325v-1.278a.325.325,0,1,1,.65,0v1.278A.325.325,0,0,1,510.352,146.058Zm0-2.555a.325.325,0,0,1-.325-.325V141.9a.325.325,0,1,1,.65,0v1.278A.325.325,0,0,1,510.352,143.5Zm0-2.555a.325.325,0,0,1-.325-.325v-1.278a.325.325,0,1,1,.65,0v1.278A.325.325,0,0,1,510.352,140.948Zm0-2.555a.325.325,0,0,1-.325-.325V136.79a.325.325,0,1,1,.65,0v1.277A.325.325,0,0,1,510.352,138.392Zm0-2.555a.325.325,0,0,1-.325-.325v-1.277a.325.325,0,1,1,.65,0v1.277A.325.325,0,0,1,510.352,135.837Zm0-2.555a.324.324,0,0,1-.325-.325v-1.277a.325.325,0,0,1,.65,0v1.277A.324.324,0,0,1,510.352,133.281Zm0-2.554a.325.325,0,0,1-.325-.325v-1.278a.325.325,0,1,1,.65,0V130.4A.325.325,0,0,1,510.352,130.727Zm0-2.555a.325.325,0,0,1-.325-.325v-1.278a.325.325,0,1,1,.65,0v1.278A.325.325,0,0,1,510.352,128.172Zm0-2.557a.324.324,0,0,1-.325-.325v-1.277a.325.325,0,1,1,.65,0v1.277A.324.324,0,0,1,510.352,125.615Zm0-2.554a.325.325,0,0,1-.325-.325v-1.278a.325.325,0,1,1,.65,0v1.278A.325.325,0,0,1,510.352,123.061Z" transform="translate(-510.027 -121.133)" fill="#fff"/>
        </g>
        <g id="Group_250" data-name="Group 250">
          <path id="Path_335" data-name="Path 335" d="M510.352,120.949a.325.325,0,0,1-.325-.325v-.65a.325.325,0,1,1,.65,0v.65A.325.325,0,0,1,510.352,120.949Z" transform="translate(-510.027 -119.65)" fill="#fff"/>
        </g>
      </g>
      <g id="Group_255" data-name="Group 255" transform="translate(71.217 48.807)">
        <g id="Group_252" data-name="Group 252" transform="translate(0 28.266)">
          <path id="Path_336" data-name="Path 336" d="M490.414,148a.325.325,0,0,1-.325-.325v-.65a.325.325,0,0,1,.65,0v.65A.325.325,0,0,1,490.414,148Z" transform="translate(-490.089 -146.703)" fill="#fff"/>
        </g>
        <g id="Group_253" data-name="Group 253" transform="translate(0 1.964)">
          <path id="Path_337" data-name="Path 337" d="M490.414,152.093a.324.324,0,0,1-.325-.325v-1.315a.325.325,0,0,1,.65,0v1.315A.324.324,0,0,1,490.414,152.093Zm0-2.63a.325.325,0,0,1-.325-.325v-1.315a.325.325,0,0,1,.65,0v1.315A.325.325,0,0,1,490.414,149.463Zm0-2.629a.325.325,0,0,1-.325-.325v-1.316a.325.325,0,0,1,.65,0v1.316A.325.325,0,0,1,490.414,146.834Zm0-2.631a.325.325,0,0,1-.325-.325v-1.315a.325.325,0,0,1,.65,0v1.315A.325.325,0,0,1,490.414,144.2Zm0-2.631a.325.325,0,0,1-.325-.325v-1.315a.325.325,0,0,1,.65,0v1.315A.325.325,0,0,1,490.414,141.572Zm0-2.629a.325.325,0,0,1-.325-.325V137.3a.325.325,0,0,1,.65,0v1.315A.325.325,0,0,1,490.414,138.943Zm0-2.631a.324.324,0,0,1-.325-.325v-1.315a.325.325,0,0,1,.65,0v1.315A.324.324,0,0,1,490.414,136.312Zm0-2.629a.325.325,0,0,1-.325-.325v-1.315a.325.325,0,0,1,.65,0v1.315A.325.325,0,0,1,490.414,133.683Zm0-2.629a.325.325,0,0,1-.325-.325v-1.316a.325.325,0,0,1,.65,0v1.316A.325.325,0,0,1,490.414,131.053Zm0-2.631a.325.325,0,0,1-.325-.325v-1.315a.325.325,0,0,1,.65,0V128.1A.325.325,0,0,1,490.414,128.422Z" transform="translate(-490.089 -126.458)" fill="#fff"/>
        </g>
        <g id="Group_254" data-name="Group 254">
          <path id="Path_338" data-name="Path 338" d="M490.414,126.245a.325.325,0,0,1-.325-.325v-.65a.325.325,0,0,1,.65,0v.65A.325.325,0,0,1,490.414,126.245Z" transform="translate(-490.089 -124.946)" fill="#fff"/>
        </g>
      </g>
      <g id="Group_259" data-name="Group 259" transform="translate(45.314 47.993)">
        <g id="Group_256" data-name="Group 256" transform="translate(0 29.08)">
          <path id="Path_339" data-name="Path 339" d="M470.476,148a.325.325,0,0,1-.325-.325v-.65a.325.325,0,1,1,.65,0v.65A.325.325,0,0,1,470.476,148Z" transform="translate(-470.151 -146.703)" fill="#fff"/>
        </g>
        <g id="Group_257" data-name="Group 257" transform="translate(0 2.005)">
          <path id="Path_340" data-name="Path 340" d="M470.476,152.233a.325.325,0,0,1-.325-.325v-1.354a.325.325,0,1,1,.65,0v1.354A.325.325,0,0,1,470.476,152.233Zm0-2.707a.325.325,0,0,1-.325-.325v-1.354a.325.325,0,1,1,.65,0V149.2A.325.325,0,0,1,470.476,149.526Zm0-2.709a.325.325,0,0,1-.325-.325v-1.354a.325.325,0,1,1,.65,0v1.354A.325.325,0,0,1,470.476,146.817Zm0-2.707a.325.325,0,0,1-.325-.325v-1.354a.325.325,0,1,1,.65,0v1.354A.325.325,0,0,1,470.476,144.11Zm0-2.707a.325.325,0,0,1-.325-.325v-1.354a.325.325,0,1,1,.65,0v1.354A.325.325,0,0,1,470.476,141.4Zm0-2.707a.325.325,0,0,1-.325-.325v-1.354a.325.325,0,0,1,.65,0v1.354A.325.325,0,0,1,470.476,138.695Zm0-2.707a.325.325,0,0,1-.325-.325v-1.354a.325.325,0,1,1,.65,0v1.354A.325.325,0,0,1,470.476,135.988Zm0-2.707a.325.325,0,0,1-.325-.325V131.6a.325.325,0,1,1,.65,0v1.354A.325.325,0,0,1,470.476,133.28Zm0-2.707a.325.325,0,0,1-.325-.325v-1.354a.325.325,0,1,1,.65,0v1.354A.325.325,0,0,1,470.476,130.573Zm0-2.707a.325.325,0,0,1-.325-.325v-1.354a.325.325,0,1,1,.65,0v1.354A.325.325,0,0,1,470.476,127.865Z" transform="translate(-470.151 -125.862)" fill="#fff"/>
        </g>
        <g id="Group_258" data-name="Group 258">
          <path id="Path_341" data-name="Path 341" d="M470.476,125.618a.324.324,0,0,1-.325-.325v-.65a.325.325,0,1,1,.65,0v.65A.324.324,0,0,1,470.476,125.618Z" transform="translate(-470.151 -124.319)" fill="#fff"/>
        </g>
      </g>
      <g id="Group_263" data-name="Group 263" transform="translate(19.412 58.661)">
        <g id="Group_260" data-name="Group 260" transform="translate(0 18.411)">
          <path id="Path_342" data-name="Path 342" d="M450.538,148a.325.325,0,0,1-.325-.325v-.65a.325.325,0,0,1,.65,0v.65A.325.325,0,0,1,450.538,148Z" transform="translate(-450.213 -146.703)" fill="#fff"/>
        </g>
        <g id="Group_261" data-name="Group 261" transform="translate(0 2.016)">
          <path id="Path_343" data-name="Path 343" d="M450.538,149.761a.325.325,0,0,1-.325-.325V148.07a.325.325,0,0,1,.65,0v1.367A.325.325,0,0,1,450.538,149.761Zm0-2.733a.325.325,0,0,1-.325-.325v-1.365a.325.325,0,1,1,.65,0V146.7A.325.325,0,0,1,450.538,147.028Zm0-2.732a.324.324,0,0,1-.325-.325v-1.365a.325.325,0,0,1,.65,0v1.365A.324.324,0,0,1,450.538,144.3Zm0-2.732a.325.325,0,0,1-.325-.325v-1.367a.325.325,0,0,1,.65,0v1.367A.325.325,0,0,1,450.538,141.563Zm0-2.733a.324.324,0,0,1-.325-.325v-1.367a.325.325,0,0,1,.65,0v1.367A.324.324,0,0,1,450.538,138.83Zm0-2.732a.324.324,0,0,1-.325-.325v-1.365a.325.325,0,0,1,.65,0v1.365A.324.324,0,0,1,450.538,136.1Z" transform="translate(-450.213 -134.083)" fill="#fff"/>
        </g>
        <g id="Group_262" data-name="Group 262">
          <path id="Path_344" data-name="Path 344" d="M450.538,133.83a.325.325,0,0,1-.325-.325v-.65a.325.325,0,1,1,.65,0v.65A.325.325,0,0,1,450.538,133.83Z" transform="translate(-450.213 -132.531)" fill="#fff"/>
        </g>
      </g>
    </g>
    <g id="Group_206" data-name="Group 206" transform="translate(906.501 470.741)">
      <path id="Path_291" data-name="Path 291" d="M419.014,154.279a16.8,16.8,0,1,0-11.086-29.4c.007-.271.041-.534.041-.806a30.193,30.193,0,0,0-58.637-10.145,22.139,22.139,0,1,0-12.577,40.355Z" transform="translate(-314.612 -93.859)" fill="#fecb15"/>
      <path id="Path_292" data-name="Path 292" d="M365.82,109.386l2.362-3.146-2.378-2.38-3.148,2.362a11.816,11.816,0,0,0-4.408-1.82l-.557-3.9h-3.363l-.557,3.9a11.816,11.816,0,0,0-4.408,1.82l-3.148-2.362-2.378,2.38,2.362,3.146a11.786,11.786,0,0,0-1.822,4.41l-3.9.555v3.365l3.9.555a11.79,11.79,0,0,0,1.822,4.408l-2.362,3.148,2.378,2.38,3.148-2.363a11.79,11.79,0,0,0,4.408,1.822l.557,3.9h3.363l.557-3.9a11.79,11.79,0,0,0,4.408-1.822l3.148,2.363,2.378-2.38-2.362-3.148a11.757,11.757,0,0,0,1.82-4.408l3.9-.555v-3.365l-3.9-.555A11.753,11.753,0,0,0,365.82,109.386Zm-5.286,7.372a4.583,4.583,0,1,1-5.25-5.25A4.6,4.6,0,0,1,360.535,116.757Z" transform="translate(-294.133 -88.601)" fill="#fff"/>
      <path id="Path_293" data-name="Path 293" d="M347.129,117.512l1.491-1.985-1.5-1.5-1.987,1.491a7.4,7.4,0,0,0-2.781-1.15L342,111.9h-2.123l-.351,2.462a7.4,7.4,0,0,0-2.781,1.15l-1.987-1.491-1.5,1.5,1.491,1.985A7.428,7.428,0,0,0,333.6,120.3l-2.462.351v2.122l2.462.351a7.428,7.428,0,0,0,1.149,2.783l-1.491,1.985,1.5,1.5,1.987-1.491a7.462,7.462,0,0,0,2.781,1.15l.351,2.462H342l.351-2.462a7.463,7.463,0,0,0,2.781-1.15l1.987,1.491,1.5-1.5-1.491-1.985a7.427,7.427,0,0,0,1.149-2.783l2.462-.351v-2.122l-2.462-.351A7.428,7.428,0,0,0,347.129,117.512Zm-3.336,4.652a2.892,2.892,0,1,1-3.311-3.313A2.9,2.9,0,0,1,343.792,122.164Z" transform="translate(-301.529 -79.571)" fill="#fff"/>
    </g>
  </g>
</svg>
